<svg version="1.2" xmlns="http://www.w3.org/2000/svg" viewBox="250.00000000000003 0 500 500" width="500" height="500"><style>.a{fill:#15614f}.b{fill:#026335}.c{fill:none;stroke:#014524;stroke-miterlimit:10;stroke-width:2}.d{fill:none;stroke:#014524;stroke-miterlimit:10;stroke-width:1.5}.e{fill:none;stroke:#437020;stroke-linecap:round;stroke-linejoin:round;stroke-width:2}.f{fill:#027f43}.g{fill:none;stroke:#437020;stroke-linecap:round;stroke-linejoin:round;stroke-width:1.5}.h{fill:#f01d36}.i{fill:#8a9e57}.j{fill:#688742}.k{fill:#0b332a}.l{fill:#014524}.m{fill:none;stroke:#02542e;stroke-linecap:round;stroke-linejoin:round;stroke-width:1.5}</style><path class="a" d="m657.4 178.1l-3-3q0-0.1 0-0.1 0-0.1 0-0.2l3-3c0.4-0.4 0.4-1.2 0-1.6-0.5-0.5-1.2-0.5-1.7 0l-3.6 3.6h-11.7l9-9.1c0.5-0.4 0.5-1.2 0-1.6-0.4-0.5-1.2-0.5-1.6 0l-10.8 10.7h-4.5l0.8-2.5-2.7 0.8v-3.5l10.7-10.8c0.5-0.4 0.5-1.2 0-1.6-0.5-0.5-1.2-0.5-1.7 0l-9 9v-11.6l3.6-3.6c0.5-0.5 0.5-1.2 0-1.7-0.5-0.4-1.2-0.4-1.7 0l-3 3.1q-0.1 0-0.1 0-0.1 0-0.2 0l-3-3c-0.4-0.5-1.2-0.5-1.6 0-0.5 0.4-0.5 1.2 0 1.6l3.6 3.7v11.7l-9-9.1c-0.5-0.4-1.3-0.4-1.7 0-0.5 0.5-0.5 1.2 0 1.7l10.7 10.7v3.4l-2.7-0.8 0.7 2.5h-4.6l-10.8-10.7c-0.4-0.5-1.2-0.5-1.6 0-0.5 0.4-0.5 1.2 0 1.6l9.1 9.1h-11.7l-3.6-3.6c-0.5-0.5-1.2-0.5-1.7 0-0.4 0.4-0.4 1.2 0 1.6l3.1 3.1q0 0 0 0.1 0 0.1 0 0.2l-3 2.9c-0.5 0.5-0.5 1.2 0 1.7 0.2 0.2 0.5 0.3 0.8 0.3 0.3 0 0.6-0.1 0.9-0.3l3.6-3.6h11.7l-9 9c-0.5 0.5-0.5 1.2 0 1.7 0.2 0.2 0.5 0.3 0.8 0.3 0.3 0 0.6-0.1 0.8-0.3l10.7-10.7h4.7l-0.9 2.9 2.7-0.8q0 0 0 0.1v5.8l-10.7 10.7c-0.5 0.5-0.5 1.2 0 1.7 0.2 0.2 0.5 0.3 0.8 0.3 0.3 0 0.6-0.1 0.9-0.3l9-9.1v11.6l-3.6 3.7c-0.5 0.4-0.5 1.2 0 1.6 0.2 0.3 0.5 0.4 0.8 0.4 0.3 0 0.6-0.1 0.8-0.4l3.1-3q0 0 0.1 0 0.1 0 0.2 0l2.9 3c0.5 0.4 1.2 0.4 1.7 0 0.5-0.5 0.5-1.2 0-1.7l-3.6-3.6v-11.8l9 9.1c0.5 0.5 1.2 0.5 1.7 0 0.5-0.4 0.5-1.2 0-1.6l-10.7-10.8v-5.6q0-0.1 0-0.1l2.7 0.8-0.9-2.9h4.8l10.7 10.7c0.3 0.2 0.6 0.3 0.9 0.3 0.3 0 0.6-0.1 0.8-0.3 0.5-0.5 0.5-1.2 0-1.7l-9.1-9h11.6l3.7 3.6c0.2 0.2 0.5 0.3 0.8 0.3 0.3 0 0.6-0.1 0.8-0.3 0.5-0.5 0.5-1.2 0-1.7z"/><path class="a" d="m474.6 102.5l-2-2q0 0 0 0 0-0.1 0-0.1l1.9-2c0.3-0.3 0.3-0.7 0-1-0.3-0.3-0.8-0.3-1 0l-2.4 2.3h-7.6l5.9-5.9c0.3-0.3 0.3-0.7 0-1-0.3-0.3-0.8-0.3-1.1 0l-6.9 6.9h-3l0.5-1.6-1.7 0.5v-2.3l6.9-6.9c0.3-0.3 0.3-0.8 0-1.1-0.3-0.3-0.8-0.3-1.1 0l-5.8 5.9v-7.6l2.3-2.3c0.3-0.3 0.3-0.8 0-1.1-0.3-0.3-0.8-0.3-1.1 0l-1.9 2q-0.1 0-0.1 0-0.1 0-0.1 0l-1.9-2c-0.3-0.3-0.8-0.3-1.1 0-0.3 0.3-0.3 0.8 0 1.1l2.3 2.4v7.6l-5.8-5.9c-0.3-0.3-0.8-0.3-1.1 0-0.3 0.3-0.3 0.8 0 1.1l6.9 6.9v2.2l-1.7-0.5 0.5 1.6h-3.1l-6.9-6.9c-0.3-0.3-0.8-0.3-1.1 0-0.3 0.3-0.3 0.7 0 1l5.9 5.9h-7.5l-2.4-2.3c-0.3-0.3-0.8-0.3-1.1 0-0.3 0.3-0.3 0.7 0 1l2 2q0 0 0 0.1 0 0 0 0.1l-1.9 1.9c-0.3 0.3-0.3 0.8 0 1.1q0.2 0.2 0.5 0.2 0.3 0 0.5-0.2l2.4-2.4h7.6l-5.9 5.9c-0.3 0.3-0.3 0.8 0 1.1q0.2 0.2 0.5 0.2 0.4 0 0.6-0.2l6.9-7h3l-0.5 1.9 1.7-0.5q0 0 0 0.1v3.7l-6.9 7c-0.3 0.3-0.3 0.8 0 1.1q0.2 0.2 0.5 0.2 0.3 0 0.6-0.2l5.8-5.9v7.5l-2.3 2.4c-0.3 0.3-0.3 0.8 0 1q0.2 0.3 0.5 0.3 0.3 0 0.6-0.3l1.9-1.9q0.1 0 0.1 0 0 0 0.1 0l1.9 1.9c0.3 0.3 0.8 0.3 1.1 0 0.3-0.3 0.3-0.8 0-1.1l-2.3-2.3v-7.6l5.8 5.9c0.3 0.3 0.8 0.3 1.1 0 0.3-0.3 0.3-0.8 0-1.1l-6.9-7v-3.6q0-0.1-0.1-0.1l1.8 0.5-0.5-1.9h3.1l6.9 7q0.2 0.2 0.5 0.2 0.4 0 0.6-0.2c0.3-0.3 0.3-0.8 0-1.1l-5.9-5.9h7.5l2.4 2.4q0.2 0.2 0.5 0.2 0.3 0 0.6-0.2c0.3-0.3 0.3-0.8 0-1.1z"/><path class="a" d="m594.8 116.1l-1.9-1.9q0-0.1 0-0.1 0 0 0-0.1l1.9-1.9c0.3-0.3 0.3-0.7 0-1-0.3-0.3-0.8-0.3-1.1 0l-2.3 2.3h-7.4l5.7-5.8c0.3-0.3 0.3-0.7 0-1-0.3-0.3-0.7-0.3-1 0l-6.8 6.8h-2.9l0.5-1.6-1.7 0.5v-2.3l6.8-6.8c0.2-0.3 0.2-0.7 0-1-0.3-0.3-0.8-0.3-1.1 0l-5.7 5.7v-7.3l2.3-2.3c0.3-0.3 0.3-0.8 0-1.1-0.3-0.3-0.8-0.3-1.1 0l-1.9 1.9q-0.1 0-0.1 0 0 0-0.1 0l-1.9-1.9c-0.3-0.3-0.8-0.3-1 0-0.3 0.3-0.3 0.8 0 1.1l2.3 2.3v7.4l-5.8-5.7c-0.3-0.3-0.7-0.3-1 0-0.3 0.3-0.3 0.7 0 1l6.8 6.8v2.2l-1.8-0.5 0.5 1.6h-2.9l-6.9-6.8c-0.2-0.3-0.7-0.3-1 0-0.3 0.3-0.3 0.7 0 1l5.7 5.8h-7.3l-2.3-2.3c-0.3-0.3-0.8-0.3-1.1 0-0.3 0.3-0.3 0.7 0 1l1.9 1.9q0 0.1 0 0.1 0 0.1 0.1 0.1l-1.9 1.9c-0.3 0.3-0.3 0.8 0 1.1q0.2 0.2 0.5 0.2 0.3 0 0.5-0.2l2.3-2.3h7.5l-5.8 5.7c-0.3 0.3-0.3 0.8 0 1.1q0.2 0.2 0.5 0.2 0.3 0 0.6-0.2l6.8-6.8h2.9l-0.6 1.8 1.8-0.5q0 0 0 0.1v3.6l-6.8 6.9c-0.3 0.2-0.3 0.7 0 1q0.2 0.2 0.5 0.2 0.3 0 0.5-0.2l5.8-5.7v7.3l-2.3 2.3c-0.3 0.3-0.3 0.8 0 1.1q0.2 0.2 0.5 0.2 0.3 0 0.5-0.2l1.9-1.9q0.1 0 0.1 0 0.1 0 0.1-0.1l1.9 1.9c0.3 0.3 0.8 0.3 1.1 0 0.3-0.2 0.3-0.7 0-1l-2.3-2.3v-7.5l5.7 5.8c0.3 0.3 0.8 0.3 1.1 0 0.2-0.3 0.2-0.8 0-1.1l-6.8-6.8v-3.5q0-0.1-0.1-0.1l1.8 0.5-0.6-1.8h3.1l6.8 6.8q0.2 0.2 0.5 0.2 0.3 0 0.5-0.2c0.3-0.3 0.3-0.8 0-1.1l-5.7-5.7h7.3l2.3 2.3q0.3 0.2 0.6 0.2 0.3 0 0.5-0.2c0.3-0.3 0.3-0.8 0-1.1z"/><path class="a" d="m524.8 372.6l-2-1.9q0-0.1 0-0.1 0-0.1 0-0.1l2-2c0.3-0.3 0.3-0.7 0-1-0.3-0.3-0.8-0.3-1.1 0l-2.4 2.3h-7.6l5.9-5.9c0.3-0.3 0.3-0.8 0-1.1-0.3-0.3-0.8-0.3-1.1 0l-7 7h-2.9l0.4-1.6-1.7 0.5v-2.3l7-7c0.3-0.3 0.3-0.8 0-1.1-0.3-0.3-0.8-0.3-1.1 0l-5.9 5.9v-7.5l2.3-2.4c0.3-0.3 0.3-0.8 0-1.1-0.3-0.3-0.7-0.3-1 0l-2 2q-0.1 0-0.1 0 0 0-0.1 0l-1.9-2c-0.3-0.3-0.8-0.3-1.1 0-0.3 0.3-0.3 0.8 0 1.1l2.3 2.4v7.6l-5.9-5.9c-0.3-0.3-0.8-0.3-1.1 0-0.2 0.3-0.2 0.8 0 1.1l7 7v2.2l-1.7-0.5 0.5 1.6h-3.1l-7-7c-0.3-0.3-0.8-0.3-1.1 0-0.3 0.3-0.3 0.8 0 1.1l5.9 5.9h-7.5l-2.4-2.3c-0.3-0.3-0.8-0.3-1.1 0-0.3 0.3-0.3 0.7 0 1l2 2q0 0.1 0 0.1 0 0 0 0.1l-1.9 1.9c-0.3 0.3-0.3 0.8 0 1.1q0.2 0.2 0.5 0.2 0.3 0 0.5-0.2l2.4-2.3h7.7l-6 5.9c-0.3 0.3-0.3 0.7 0 1q0.3 0.3 0.6 0.3 0.3 0 0.5-0.3l7-6.9h3l-0.5 1.9 1.8-0.6q-0.1 0.1-0.1 0.1v3.8l-7 7c-0.2 0.3-0.2 0.8 0 1.1q0.3 0.2 0.6 0.2 0.3 0 0.5-0.2l5.9-5.9v7.5l-2.3 2.4c-0.3 0.3-0.3 0.8 0 1.1q0.2 0.2 0.5 0.2 0.3 0 0.6-0.2l1.9-2q0.1 0 0.1 0 0.1 0 0.1 0l2 1.9c0.3 0.3 0.7 0.3 1 0 0.3-0.3 0.3-0.7 0-1l-2.3-2.4v-7.7l5.9 6c0.3 0.3 0.8 0.3 1.1 0 0.3-0.3 0.3-0.8 0-1.1l-7-7v-3.7q0 0 0-0.1l1.7 0.6-0.5-1.9h3.1l7 6.9q0.2 0.3 0.5 0.3 0.3 0 0.6-0.3c0.3-0.3 0.3-0.7 0-1l-5.9-5.9h7.5l2.4 2.3q0.2 0.2 0.6 0.2 0.3 0 0.5-0.2c0.3-0.3 0.3-0.8 0-1.1z"/><path class="a" d="m338.7 399.9l-2.4-2.4q0-0.1 0-0.1 0-0.1 0-0.1l2.4-2.4c0.4-0.4 0.4-0.9 0-1.3-0.4-0.4-1-0.4-1.3 0l-2.9 2.9h-9.3l7.2-7.2c0.4-0.4 0.4-1 0-1.3-0.4-0.4-1-0.4-1.3 0l-8.5 8.5h-3.6l0.6-2-2.2 0.6v-2.8l8.6-8.5c0.3-0.4 0.3-0.9 0-1.3-0.4-0.4-1-0.4-1.4 0l-7.2 7.2v-9.2l2.9-2.9c0.4-0.4 0.4-1 0-1.3-0.3-0.4-0.9-0.4-1.3 0l-2.4 2.4q0 0-0.1 0 0 0-0.1 0l-2.4-2.4c-0.3-0.3-0.9-0.3-1.3 0-0.4 0.4-0.4 1 0 1.3l2.9 2.9v9.3l-7.2-7.2c-0.4-0.3-1-0.3-1.3 0-0.4 0.4-0.4 1 0 1.3l8.5 8.5v2.7l-2.2-0.6 0.6 2h-3.7l-8.5-8.5c-0.3-0.4-0.9-0.4-1.3 0-0.4 0.3-0.4 0.9 0 1.3l7.2 7.2h-9.2l-2.9-2.9c-0.4-0.4-0.9-0.4-1.3 0-0.4 0.4-0.4 0.9 0 1.3l2.4 2.4q0 0.1 0 0.1 0 0.1 0 0.1l-2.4 2.4c-0.3 0.4-0.3 1 0 1.3q0.3 0.3 0.7 0.3 0.4 0 0.7-0.3l2.8-2.9h9.3l-7.2 7.2c-0.3 0.4-0.3 1 0 1.3q0.3 0.3 0.7 0.3 0.4 0 0.7-0.3l8.5-8.5h3.6l-0.7 2.3 2.2-0.6q0 0.1 0 0.1v4.6l-8.5 8.5c-0.4 0.4-0.4 0.9 0 1.3q0.3 0.3 0.6 0.3 0.4 0 0.7-0.3l7.2-7.2v9.2l-2.9 2.9c-0.4 0.4-0.4 1 0 1.3q0.3 0.3 0.7 0.3 0.3 0 0.6-0.3l2.4-2.4q0.1 0 0.1 0 0.1 0 0.1 0l2.4 2.4c0.4 0.3 1 0.3 1.3 0 0.4-0.4 0.4-1 0-1.3l-2.9-2.9v-9.3l7.2 7.2c0.4 0.3 1 0.3 1.4 0 0.3-0.4 0.3-1 0-1.3l-8.6-8.5v-4.5q0 0 0-0.1l2.2 0.6-0.7-2.3h3.8l8.5 8.5q0.3 0.3 0.7 0.3 0.3 0 0.6-0.3c0.4-0.3 0.4-0.9 0-1.3l-7.2-7.2h9.2l2.9 2.9q0.3 0.3 0.7 0.3 0.4 0 0.6-0.3c0.4-0.3 0.4-0.9 0-1.3z"/><path class="a" d="m533 155.5q-6.4-0.5-12.8-0.7-5.2-0.2-10.5-0.2 2.1-2.2 4.1-4.4c1.9-2 3.7-4.1 5.3-6.3-2.2 1.6-4.3 3.4-6.3 5.3q-2.2 2-4.4 4.1c-0.1-7.7-0.2-15.5-0.9-23.3-0.7 7.8-0.8 15.5-0.9 23.3q-2.1-2.2-4.3-4.2c-2-1.9-4-3.8-6.2-5.5 1.6 2.3 3.4 4.4 5.2 6.5q2 2.3 4.1 4.5c-7.8 0.1-15.6 0.2-23.4 0.9 7.8 0.7 15.6 0.8 23.3 0.9q-2.1 2.2-4.1 4.4c-1.9 2.1-3.7 4.1-5.3 6.3 2.2-1.6 4.2-3.4 6.3-5.3q2.2-2 4.4-4.1 0 5.3 0.2 10.6 0.2 6.3 0.7 12.7 0.5-6.4 0.7-12.7 0.2-5.3 0.2-10.6 2.1 2.2 4.3 4.2c2 1.9 4 3.7 6.2 5.5-1.6-2.3-3.4-4.4-5.2-6.5q-2-2.3-4.1-4.5 5.3 0 10.6-0.2 6.4-0.2 12.8-0.7z"/><path class="a" d="m458 433.5q-5.4-0.5-10.8-0.6-4.4-0.2-8.9-0.2 1.8-1.8 3.5-3.7c1.6-1.7 3.1-3.4 4.5-5.3-1.9 1.4-3.6 2.9-5.3 4.5q-1.9 1.7-3.7 3.5c-0.1-6.6-0.2-13.1-0.8-19.7-0.6 6.5-0.7 13.1-0.8 19.6q-1.7-1.8-3.6-3.5c-1.7-1.6-3.4-3.2-5.2-4.6 1.3 1.9 2.8 3.7 4.3 5.4q1.7 2 3.5 3.8c-6.6 0.1-13.1 0.2-19.7 0.8 6.6 0.6 13.1 0.7 19.7 0.8q-1.8 1.8-3.5 3.7c-1.6 1.7-3.1 3.5-4.5 5.3 1.8-1.4 3.6-2.9 5.3-4.5q1.9-1.7 3.7-3.5 0 4.5 0.2 8.9 0.1 5.4 0.6 10.8 0.5-5.4 0.6-10.8 0.2-4.4 0.2-8.8 1.7 1.8 3.6 3.5c1.7 1.6 3.4 3.2 5.2 4.6-1.3-1.9-2.8-3.7-4.4-5.4q-1.6-2-3.4-3.8 4.5 0 9-0.2 5.3-0.1 10.7-0.6z"/><path class="a" d="m649 246.5q-4.9-0.4-9.8-0.6-4-0.1-8-0.1 1.6-1.6 3.1-3.4c1.5-1.5 2.8-3.1 4.1-4.8-1.7 1.3-3.3 2.6-4.8 4.1q-1.8 1.5-3.4 3.1c-0.1-5.9-0.2-11.9-0.7-17.8-0.5 5.9-0.6 11.9-0.7 17.8q-1.6-1.6-3.3-3.2c-1.5-1.5-3.1-2.9-4.7-4.2 1.2 1.7 2.6 3.4 3.9 4.9q1.6 1.8 3.2 3.5c-6 0.1-11.9 0.2-17.9 0.7 5.9 0.5 11.9 0.6 17.8 0.7q-1.6 1.6-3.1 3.4c-1.4 1.5-2.8 3.1-4.1 4.8 1.7-1.3 3.3-2.7 4.8-4.1q1.8-1.5 3.4-3.1 0 4 0.1 8.1 0.2 4.8 0.6 9.7 0.4-4.9 0.6-9.7 0.1-4.1 0.1-8.1 1.6 1.6 3.3 3.2c1.5 1.5 3.1 2.9 4.7 4.2-1.2-1.7-2.6-3.4-3.9-4.9q-1.6-1.8-3.2-3.5 4.1 0 8.1-0.1 4.9-0.2 9.8-0.6z"/><path class="a" d="m543 242q-4.3-0.4-8.5-0.5-3.5-0.1-7.1-0.1 1.5-1.4 2.8-2.9c1.3-1.4 2.5-2.8 3.6-4.3-1.5 1.1-2.9 2.3-4.3 3.6q-1.5 1.3-2.9 2.8c0-5.2-0.2-10.4-0.6-15.6-0.4 5.2-0.6 10.3-0.6 15.5q-1.4-1.4-2.9-2.8c-1.3-1.2-2.7-2.5-4.1-3.6 1.1 1.5 2.2 2.9 3.4 4.3q1.4 1.5 2.8 3c-5.2 0-10.4 0.2-15.6 0.6 5.2 0.4 10.4 0.6 15.6 0.6q-1.5 1.4-2.8 2.9c-1.2 1.4-2.4 2.8-3.6 4.3 1.5-1.2 2.9-2.4 4.3-3.6q1.5-1.3 2.9-2.8 0 3.6 0.1 7.1 0.1 4.2 0.5 8.5 0.4-4.3 0.5-8.5 0.1-3.5 0.1-7 1.4 1.4 2.9 2.8c1.3 1.2 2.7 2.5 4.1 3.6-1.1-1.5-2.2-2.9-3.5-4.3q-1.3-1.5-2.7-3 3.6 0 7.1-0.1 4.3-0.1 8.5-0.5z"/><path class="a" d="m624 410q-4.3-0.4-8.5-0.5-3.5-0.1-7.1-0.1 1.5-1.4 2.8-2.9c1.3-1.4 2.5-2.8 3.6-4.3-1.5 1.1-2.9 2.3-4.3 3.6q-1.5 1.3-2.9 2.8c0-5.2-0.2-10.4-0.6-15.6-0.4 5.2-0.6 10.3-0.6 15.5q-1.4-1.4-2.9-2.8c-1.3-1.2-2.7-2.5-4.1-3.6 1.1 1.5 2.2 2.9 3.4 4.3q1.4 1.5 2.8 3c-5.2 0-10.4 0.2-15.6 0.6 5.2 0.4 10.4 0.6 15.6 0.6q-1.5 1.4-2.8 2.9c-1.2 1.4-2.4 2.8-3.6 4.3 1.5-1.2 2.9-2.4 4.3-3.6q1.5-1.3 2.9-2.8 0 3.6 0.1 7.1 0.1 4.2 0.5 8.5 0.4-4.3 0.5-8.5 0.1-3.5 0.1-7 1.4 1.4 2.9 2.8c1.3 1.2 2.7 2.5 4.1 3.6-1.1-1.5-2.2-2.9-3.5-4.3q-1.3-1.5-2.7-3 3.6 0 7.1-0.1 4.3-0.1 8.5-0.5z"/><path class="a" d="m335 460q-5.3-0.5-10.5-0.6-4.4-0.1-8.7-0.1 1.7-1.8 3.4-3.7c1.5-1.6 3-3.4 4.4-5.2-1.8 1.4-3.6 2.9-5.2 4.4q-1.9 1.7-3.7 3.4c0-6.4-0.2-12.8-0.7-19.2-0.5 6.4-0.7 12.8-0.7 19.2q-1.8-1.8-3.6-3.5c-1.6-1.6-3.3-3.1-5.1-4.5 1.3 1.9 2.8 3.6 4.3 5.3q1.6 1.9 3.4 3.8c-6.5 0-12.9 0.2-19.3 0.7 6.4 0.5 12.8 0.7 19.2 0.7q-1.7 1.8-3.4 3.7c-1.5 1.7-3 3.4-4.4 5.2 1.8-1.4 3.5-2.9 5.2-4.4q1.9-1.7 3.7-3.4 0 4.3 0.1 8.7 0.1 5.3 0.6 10.5 0.5-5.2 0.6-10.5 0.1-4.3 0.1-8.7 1.8 1.8 3.6 3.5c1.6 1.5 3.3 3.1 5.1 4.5-1.3-1.9-2.8-3.6-4.3-5.3q-1.6-1.9-3.4-3.8 4.4 0 8.8-0.1 5.3-0.1 10.5-0.6z"/><g style="opacity:.4;mix-blend-mode:multiply"></g><g style="opacity:.4;mix-blend-mode:multiply"></g><g style="opacity:.4;mix-blend-mode:multiply"></g><path class="b" d="m663.6 509.6c-4-11.1-13-25-32.9-22.7 0 0-6.5-37.4-39.4-40.1 0 0 27.7-30.7 13.5-64.7 21.5 30 62.2 22.6 62.2 22.6-15.1 29.4 13.2 54.6 13.2 54.6-12.4 15.7-5.3 30.7 2 39.9z"/><path class="c" d="m669.4 497.3l-48.2-86.7"/><path class="c" d="m661.1 482.3c0 0-9.4-9.1-23.2-9.9"/><path class="c" d="m648.5 459.8c0 0-9.3-9.1-23.2-10"/><path class="c" d="m635.2 435.7c0 0-9.4-9-23.2-9.9"/><path class="c" d="m661.5 482.1c0 0-2.8-12.7 3.7-24.9"/><path class="c" d="m648.9 459.6c0 0-2.8-12.8 3.7-25"/><path class="c" d="m635.5 435.5c0 0-2.8-12.7 3.8-24.9"/><path class="b" d="m763.6 199.8c-7.8 0.4-18.6 3.3-21.2 16.6 0 0-25.3-3.4-33.6 17.2 0 0-14.1-24-38.9-21.7 23.6-7.8 27.1-35.4 27.1-35.4 15.8 15.6 37.7 2.5 37.7 2.5 7.6 11.1 18.7 9.6 26 6.8z"/><path class="d" d="m756.9 193.6l-65.3 13.5"/><path class="d" d="m745.7 195.9c0 0-7.8 4.2-11.1 12.9"/><path class="d" d="m728.6 199.5c0 0-7.7 4.1-11 12.8"/><path class="d" d="m710.5 203.2c0 0-7.7 4.2-11.1 12.9"/><path class="d" d="m745.6 195.7c0 0-8.7-0.8-15.3-7.5"/><path class="d" d="m728.6 199.2c0 0-8.8-0.8-15.3-7.4"/><path class="d" d="m710.5 202.9c0 0-8.8-0.7-15.3-7.4"/><path class="e" d="m700.9 499.7c0 0-5.9-75.8-64.6-126.8l-9.6-8"/><path class="e" d="m628.4 375.3c9.9 3.6 14.9 4.1 14.9 4.1 0 0 1.2-3.4-2.6-16.2"/><path class="e" d="m629.3 381.9c13.1 3.4 20.8 3.2 19.1 3.3 0 0 3.2-5.5-0.1-19.9"/><path class="e" d="m631.8 389.8c0 0 10.2 2 23.3 2.2 0 0 3.2-6.8 2-22.6"/><path class="e" d="m636.7 398.4c0 0 9.7 2.1 25 1.9 0 0 3.7-7.8 3-25.2"/><path class="e" d="m639.1 406.2c0 0 11.4 2.7 28.5 2.5 0 0 5.1-9.7 5-26.1"/><path class="e" d="m642.4 414.4c0 0 12.5 3.1 30.4 2.5 0 0 5.3-11.1 7.3-28.6"/><path class="e" d="m644.6 423.1c0 0 13 3.6 33.9 4.2 0 0 6.7-10.5 8.9-32.5"/><path class="e" d="m645.7 432.4c0 0 22.6 5.7 37.3 4 0 0 7.5-12.8 11.3-33.5"/><path class="e" d="m648.5 442.2c0 0 19.4 5.7 39 4.9 0 0 7.3-12.4 13.6-32.4"/><path class="e" d="m654.7 452.9c0 0 14.9 4.5 36.6 4.6 0 0 7.3-10 13.1-28.3"/><path class="e" d="m660.8 463.6c0 0 11.6 4.1 34 5.1 0 0 5.7-8 12.3-22.5"/><path class="e" d="m667 474.3c0 0 13 3.6 30.5 5.1 0 0 3.8-1.3 11.9-18.1"/><path class="e" d="m673.4 484.2c0 0 10.8 3.6 25.4 4.9 0 0 5.5-2 11.8-12.1"/><path class="e" d="m793.5 313.9c0 0-17.9-55.9-71.2-83.9l-8.6-4.3"/><path class="e" d="m716.8 233.2c8.1 0.9 12 0.4 12 0.4 0 0 0.3-2.7-4.9-11.7"/><path class="e" d="m718.7 238c10.4 0.2 16.2-1.3 14.9-0.9 0 0 1.5-4.7-3.6-15"/><path class="e" d="m721.9 243.5c0 0 8.1-0.4 18-2.5 0 0 1.2-5.7-2.5-17.3"/><path class="e" d="m727.2 249.1c0 0 7.6-0.1 19.1-3 0 0 1.4-6.6-2.2-19.5"/><path class="e" d="m730.4 254.6c0 0 9-0.1 21.8-3.3 0 0 2.2-8.2-0.8-20.4"/><path class="e" d="m734.3 260.1c0 0 10 0.1 23.3-3.5 0 0 2.1-9.3 0.5-22.8"/><path class="e" d="m737.5 266.3c0 0 10.5 0.4 26.3-2.9 0 0 3.1-9.1 0.9-26.1"/><path class="e" d="m740 273.1c0 0 18 0.3 28.7-3.7 0 0 3.5-10.9 2.6-27.1"/><path class="e" d="m743.8 280c0 0 15.6 0.8 30.2-3.3 0 0 3.4-10.6 4.5-26.8"/><path class="e" d="m750.4 286.9c0 0 12 0.7 28.4-3 0 0 3.7-8.8 4.8-23.7"/><path class="e" d="m756.9 293.9c0 0 9.5 1 26.5-2.2 0 0 2.9-7.1 5.3-19.2"/><path class="e" d="m763.5 300.9c0 0 10.3 0.3 23.8-1.7 0 0 2.6-1.6 5.8-15.7"/><path class="e" d="m770 307.1c0 0 8.8 0.8 20-0.8 0 0 3.8-2.5 6.8-11.2"/><path class="e" d="m764.9 14.9c0 0-23.4 54-79.2 76.5l-9 3.5"/><path class="e" d="m680.6 87.7c8.1-0.1 11.9 0.8 11.9 0.8 0 0 0 2.7-6 11.1"/><path class="e" d="m682.9 83.1c10.4 0.8 16 2.9 14.8 2.4 0 0 1 4.8-5.1 14.5"/><path class="e" d="m686.7 78c0 0 8 1.1 17.6 4.2 0 0 0.6 5.8-4.2 17"/><path class="e" d="m692.4 72.9c0 0 7.7 0.9 18.8 4.9 0 0 0.8 6.6-4.2 19.2"/><path class="e" d="m696.2 67.8c0 0 9 0.9 21.4 5.3 0 0 1.3 8.4-2.9 20.3"/><path class="e" d="m700.6 62.7c0 0 9.9 0.8 22.9 5.7 0 0 1.1 9.5-1.8 22.8"/><path class="e" d="m704.4 56.8c0 0 10.5 0.7 25.9 5.5 0 0 2.2 9.3-1.7 26"/><path class="e" d="m707.6 50.3c0 0 18 1.5 28.2 6.4 0 0 2.4 11.3-0.1 27.3"/><path class="e" d="m712.1 43.8c0 0 15.6 0.7 29.7 6.3 0 0 2.3 10.8 1.8 27"/><path class="e" d="m719.3 37.5c0 0 12 0.5 28 5.9 0 0 2.8 9.1 2.4 24"/><path class="e" d="m726.5 31.2c0 0 9.5 0 26.1 4.9 0 0 2.2 7.3 3.4 19.5"/><path class="e" d="m733.7 25c0 0 10.3 0.6 23.5 3.9 0 0 2.5 1.9 4.2 16.3"/><path class="e" d="m740.8 19.4c0 0 8.8 0.1 19.8 2.8 0 0 3.6 2.8 5.7 11.8"/><path class="f" d="m744.4 506.3c-6.5-12.5-19.6-27.5-42.8-21.5 0 0-14-43.4-53.6-41 0 0 27.8-41.1 5.3-79.2v-0.1c30.5 32.1 77.7 16.5 77.7 16.5-13.1 37.5 24.8 62.7 24.8 62.7-12.1 20.8-1.1 37.4 9 47.1z"/><path class="c" d="m749.3 490.7l-71.8-94.9"/><path class="c" d="m736.9 474.3c0 0-12.6-9.2-29.2-8"/><path class="c" d="m718.2 449.6c0 0-12.6-9.2-29.2-8"/><path class="c" d="m698.3 423.3c0 0-12.6-9.3-29.2-8"/><path class="c" d="m737.3 474c0 0-5.4-14.7 0.3-30.3"/><path class="c" d="m718.6 449.3c0 0-5.4-14.7 0.3-30.3"/><path class="c" d="m698.7 423c0 0-5.4-14.7 0.3-30.3"/><path class="f" d="m442.1 501.5c4.9-7.3 9.2-19.1-1.1-30.1 0 0 19.6-20.7 6.4-41.8 0 0 31 2.9 45.2-21.1-8.4 26.5 14.4 47.8 14.4 47.8-24.6 4.1-27 32.6-27 32.6-15.1-0.4-21 10.7-23.2 19.2z"/><path class="d" d="m452.2 499.5l30.5-68.2"/><path class="d" d="m457.4 487.8c0 0 1.3-9.8-4.4-18.5"/><path class="d" d="m465.4 470c0 0 1.3-9.8-4.4-18.5"/><path class="d" d="m473.9 451.1c0 0 1.2-9.8-4.5-18.5"/><path class="d" d="m457.7 487.9c0 0 6.5-7.5 16.8-9"/><path class="d" d="m465.7 470.1c0 0 6.4-7.4 16.8-9"/><path class="d" d="m474.2 451.2c0 0 6.4-7.4 16.7-9"/><path class="g" d="m622.7 504.5c0 0-40.7-26.4-83.2-89.1"/><path class="g" d="m551.3 420.9l-0.9 10"/><path class="g" d="m557.6 423.6l-2.6 13.2"/><path class="g" d="m553.1 433.6l-13.6-2.8"/><path class="g" d="m571.7 457.2l-23.2-2.8"/><path class="g" d="m551.2 448.1l8.9 7.7-5.3 5"/><path class="g" d="m577.4 463.6l-1.7-21.8"/><path class="g" d="m569.4 442.7l7 7.7"/><path class="g" d="m584.8 450.9l-7.9 6.7"/><path class="g" d="m586.5 463.6l1.7 11.3"/><path class="g" d="m604.3 490.1c0 0-1.5-15.6-1.5-24.6"/><path class="g" d="m595.6 467.3l7.6 8.6 6-5.9"/><path class="g" d="m597.5 483.8l-26.4-4.8"/><path class="g" d="m576.5 473.5l8.4 8.5-7.5 5.1"/><path class="g" d="m612 496.6c-0.2-0.3-12-1.2-12-1.2"/><path class="h" d="m554 420c-1.5 1.5-3.9 1.5-5.4 0-1.5-1.5-1.5-4 0-5.5 1.5-1.5 4-1.5 5.4 0.1 1.5 1.5 1.5 3.9 0 5.4z"/><path class="h" d="m542.3 417.2c-1.6 1.5-4 1.5-5.5 0-1.5-1.5-1.5-3.9 0-5.4 1.5-1.5 4-1.5 5.5 0 1.5 1.5 1.5 3.9 0 5.4z"/><path class="h" d="m539.5 432.6c-1.5 1.5-4 1.5-5.4 0-1.5-1.5-1.5-3.9 0-5.4 1.5-1.5 3.9-1.5 5.4 0 1.5 1.5 1.5 3.9 0 5.4z"/><path class="h" d="m562.2 424.6c-1.5 1.4-4 1.4-5.5-0.1-1.5-1.5-1.5-3.9 0.1-5.4 1.5-1.5 3.9-1.5 5.4 0 1.5 1.5 1.5 4 0 5.5z"/><path class="h" d="m570.3 443.6c-1.5 1.5-4 1.5-5.5 0-1.5-1.5-1.5-3.9 0.1-5.4 1.5-1.5 3.9-1.5 5.4 0 1.5 1.5 1.5 3.9 0 5.4z"/><path class="h" d="m579.3 441.8c-1.5 1.5-3.9 1.5-5.4 0-1.5-1.5-1.5-3.9 0-5.4 1.5-1.5 4-1.5 5.5 0 1.5 1.5 1.5 3.9-0.1 5.4z"/><path class="h" d="m590.2 450.9c-1.5 1.5-3.9 1.5-5.4 0-1.5-1.5-1.5-3.9 0-5.4 1.5-1.5 3.9-1.5 5.4 0 1.5 1.5 1.5 3.9 0 5.4z"/><path class="h" d="m590.2 463.6c-1.5 1.5-4 1.5-5.5 0-1.5-1.5-1.5-3.9 0-5.4 1.5-1.5 4-1.5 5.5 0 1.5 1.5 1.5 3.9 0 5.4z"/><path class="h" d="m596.5 468.2c-1.5 1.5-4 1.5-5.5-0.1-1.4-1.5-1.4-3.9 0.1-5.4 1.5-1.5 3.9-1.5 5.4 0 1.5 1.5 1.5 4 0 5.5z"/><path class="h" d="m605.6 464.6c-1.5 1.5-4 1.5-5.5-0.1-1.5-1.5-1.5-3.9 0-5.4 1.5-1.5 4-1.5 5.5 0 1.5 1.5 1.5 4 0 5.5z"/><path class="h" d="m613.7 470.9c-1.5 1.5-3.9 1.5-5.4 0-1.5-1.5-1.5-3.9 0-5.4 1.5-1.5 3.9-1.5 5.4 0 1.5 1.5 1.5 3.9 0 5.4z"/><path class="h" d="m599.1 498.1c-1.5 1.5-3.9 1.5-5.4 0-1.5-1.5-1.5-4 0-5.5 1.5-1.5 3.9-1.5 5.4 0 1.5 1.6 1.5 4 0 5.5z"/><path class="h" d="m577.4 490.8c-1.5 1.5-4 1.5-5.5-0.1-1.5-1.5-1.4-3.9 0.1-5.4 1.5-1.5 3.9-1.5 5.4 0 1.5 1.5 1.5 4 0 5.5z"/><path class="h" d="m571.1 480.8c-1.5 1.5-4 1.5-5.5 0-1.5-1.5-1.5-4 0-5.5 1.6-1.5 4-1.5 5.5 0 1.5 1.5 1.5 4 0 5.5z"/><path class="h" d="m577.4 474.5c-1.5 1.4-3.9 1.4-5.4-0.1-1.5-1.5-1.5-3.9 0-5.4 1.5-1.5 4-1.5 5.5 0 1.4 1.5 1.4 4-0.1 5.5z"/><path class="h" d="m555.7 465.3c-1.5 1.5-3.9 1.5-5.4 0-1.5-1.5-1.5-3.9 0-5.4 1.5-1.5 3.9-1.5 5.4 0 1.5 1.5 1.5 3.9 0 5.4z"/><path class="h" d="m547.6 457.1c-1.5 1.5-4 1.5-5.5 0-1.5-1.5-1.5-3.9 0.1-5.4 1.5-1.5 3.9-1.5 5.4 0 1.5 1.5 1.5 3.9 0 5.4z"/><path class="h" d="m552.1 449c-1.5 1.5-3.9 1.5-5.4 0-1.5-1.5-1.5-4 0-5.5 1.5-1.5 3.9-1.5 5.4 0.1 1.5 1.5 1.5 3.9 0 5.4z"/><path class="g" d="m751.8 86.4c0 0-22.7 28.8-72.8 56.4"/><path class="g" d="m684 134.4l7.4 1.3"/><path class="g" d="m686.4 129.8l9.8 2.9"/><path class="g" d="m693.6 133.9l-3 10"/><path class="g" d="m712.7 121.5l-3.7 17.3"/><path class="g" d="m704.4 136.3l6.5-6.2 3.3 4.4"/><path class="g" d="m717.9 117.6l-16.5-0.2"/><path class="g" d="m701.6 122.3l6.3-4.8"/><path class="g" d="m708.8 111.2l4.5 6.4"/><path class="g" d="m718.5 110.8l8.6-0.5"/><path class="g" d="m739.6 99.2c0 0-11.8 0.1-18.6-0.6"/><path class="g" d="m721.9 104.2l7-5.1-4-4.9"/><path class="g" d="m734.4 103.9l-5.4 19.6"/><path class="g" d="m725.3 119l6.9-5.7 3.4 6"/><path class="g" d="m745 93.8c-0.2 0.2-1.7 9-1.7 9"/><path class="h" d="m683.5 132.2c1 1.3 0.8 3.1-0.4 4.1-1.3 1.1-3.1 0.9-4.1-0.3-1-1.3-0.9-3.1 0.4-4.1 1.2-1.1 3-0.9 4.1 0.3z"/><path class="h" d="m680.6 140.9c1 1.3 0.8 3.1-0.4 4.1-1.2 1-3.1 0.9-4.1-0.4-1-1.2-0.8-3 0.4-4.1 1.2-1 3.1-0.8 4.1 0.4z"/><path class="h" d="m692 144.1c1 1.2 0.8 3-0.4 4-1.2 1.1-3.1 0.9-4.1-0.3-1-1.3-0.8-3.1 0.4-4.1 1.2-1.1 3.1-0.9 4.1 0.4z"/><path class="h" d="m687.5 126.4c1 1.3 0.8 3.1-0.4 4.1-1.3 1-3.1 0.9-4.1-0.4-1-1.2-0.9-3 0.4-4.1 1.2-1 3-0.8 4.1 0.4z"/><path class="h" d="m702.3 121.6c1.1 1.3 0.9 3.1-0.3 4.1-1.3 1.1-3.1 0.9-4.1-0.4-1.1-1.2-0.9-3 0.4-4 1.2-1.1 3-0.9 4 0.3z"/><path class="h" d="m701.6 114.7c1 1.2 0.9 3.1-0.4 4.1-1.2 1-3 0.8-4.1-0.4-1-1.2-0.8-3.1 0.4-4.1 1.3-1 3.1-0.8 4.1 0.4z"/><path class="h" d="m709.2 107.2c1 1.2 0.9 3-0.4 4-1.2 1.1-3 0.9-4.1-0.3-1-1.3-0.8-3.1 0.4-4.1 1.3-1.1 3.1-0.9 4.1 0.4z"/><path class="h" d="m718.8 108c1 1.3 0.8 3.1-0.4 4.1-1.3 1.1-3.1 0.9-4.1-0.3-1-1.3-0.9-3.1 0.4-4.1 1.2-1.1 3-0.9 4.1 0.3z"/><path class="h" d="m722.6 103.6c1 1.2 0.9 3.1-0.4 4.1-1.2 1-3 0.8-4.1-0.4-1-1.2-0.8-3.1 0.4-4.1 1.3-1 3.1-0.8 4.1 0.4z"/><path class="h" d="m720.5 96.5c1.1 1.3 0.9 3.1-0.4 4.1-1.2 1-3 0.9-4-0.4-1.1-1.2-0.9-3 0.3-4.1 1.3-1 3.1-0.8 4.1 0.4z"/><path class="h" d="m725.9 90.8c1 1.3 0.8 3.1-0.4 4.1-1.2 1-3.1 0.9-4.1-0.4-1-1.2-0.8-3 0.4-4.1 1.2-1 3.1-0.8 4.1 0.4z"/><path class="h" d="m745.3 103.7c1 1.2 0.9 3-0.4 4.1-1.2 1-3 0.8-4.1-0.4-1-1.3-0.8-3.1 0.4-4.1 1.3-1 3.1-0.9 4.1 0.4z"/><path class="h" d="m738.3 119.5c1 1.3 0.9 3.1-0.4 4.1-1.2 1-3 0.9-4.1-0.4-1-1.2-0.8-3 0.4-4.1 1.3-1 3.1-0.8 4.1 0.4z"/><path class="h" d="m730.4 123.6c1 1.2 0.8 3.1-0.4 4.1-1.2 1-3.1 0.8-4.1-0.4-1-1.2-0.9-3.1 0.4-4.1 1.2-1 3-0.9 4.1 0.4z"/><path class="h" d="m726 118.4c1.1 1.2 0.9 3-0.3 4.1-1.3 1-3.1 0.8-4.1-0.4-1.1-1.3-0.9-3.1 0.4-4.1 1.2-1 3-0.9 4 0.4z"/><path class="h" d="m717.7 134.1c1 1.2 0.8 3.1-0.4 4.1-1.2 1-3.1 0.8-4.1-0.4-1-1.2-0.8-3.1 0.4-4.1 1.2-1 3.1-0.8 4.1 0.4z"/><path class="h" d="m711 139.6c1 1.3 0.8 3.1-0.4 4.1-1.2 1.1-3.1 0.9-4.1-0.3-1-1.3-0.9-3.1 0.4-4.1 1.2-1.1 3.1-0.9 4.1 0.3z"/><path class="h" d="m705.2 135.7c1 1.2 0.8 3-0.4 4.1-1.3 1-3.1 0.8-4.1-0.4-1-1.3-0.9-3.1 0.4-4.1 1.2-1 3-0.9 4.1 0.4z"/><path class="i" d="m756 422.4c-0.5 0.1-12.9 0.6-27.8-6.2-13.7-6.3-32-20.2-41.7-51.2l2.3-0.7c5.2 16.6 16.4 38.7 40.3 49.7 14.4 6.6 26.7 6.1 26.8 6.1z"/><path class="i" d="m687.8 367.2c-3.2-3.2-8.5-12.9-3.1-13.9 4.2-0.8 5.9 10.4 3.1 13.9z"/><path class="i" d="m691 378.9c-3.4 0.6-12.4-1-10.3-5 1.5-3 8 1.5 10.3 5z"/><path class="i" d="m694.4 376.9c-1.2-3.3-1.1-12.4 3.2-11 3.2 1-0.1 8.1-3.2 11z"/><path class="i" d="m698.8 392.8c-3.7 0.6-13.4-1.2-11.2-5.4 1.7-3.3 8.7 1.5 11.2 5.4z"/><path class="i" d="m701.9 389c-1.6-3.4-2.4-13.2 2.3-12.2 3.6 0.8 0.8 8.8-2.3 12.2z"/><path class="i" d="m708.8 404.6c-4 1-14.7-0.4-12.6-5.2 1.7-3.7 9.6 1.2 12.6 5.2z"/><path class="i" d="m722.9 415.2c-3.5 2.1-14.1 4.1-13.5-1.1 0.4-4.1 9.5-1.9 13.5 1.1z"/><path class="i" d="m736.9 420.6c-2.7 3.1-12.2 8.3-13.3 3.1-0.8-4 8.5-4.7 13.3-3.1z"/><path class="i" d="m738.4 416.7c-3.9-1.5-12.1-8.5-7.6-11.4 3.4-2.1 7.4 6.3 7.6 11.4z"/><path class="i" d="m725.2 410.7c-3.3-2.5-9-11.7-3.9-13.1 3.9-1 5.2 8.2 3.9 13.1z"/><path class="i" d="m712.8 401.2c-2.4-3.3-5.5-13.7-0.2-13.6 4 0 2.8 9.2 0.2 13.6z"/><path class="b" d="m550.9 504.2c-0.5-0.2-12-5-22.5-17.4-9.7-11.5-20.4-32-16-64.1l2.3 0.3c-2.3 17.2-1.6 42 15.4 62.1 10.2 12.1 21.5 16.9 21.7 16.9z"/><path class="b" d="m512.6 425.2c-1.5-4.2-2.1-15.3 3.2-13.9 4.1 1.1 0.8 12-3.2 13.9z"/><path class="b" d="m510.6 437.2c-3.4-0.9-10.8-6.2-7.3-8.9 2.7-2.1 6.7 4.7 7.3 8.9z"/><path class="b" d="m514.5 436.8c0.3-3.5 4.3-11.6 7.5-8.6 2.5 2.3-3.4 7.3-7.5 8.6z"/><path class="b" d="m511.7 453c-3.6-1-11.6-6.7-7.8-9.6 2.9-2.2 7.2 5.1 7.8 9.6z"/><path class="b" d="m516.1 450.9c0-3.7 3.5-12.9 7.3-10 2.9 2.3-3 8.3-7.3 10z"/><path class="b" d="m515.7 468c-4-0.8-13.1-6.6-9.1-10 3-2.7 8.2 5.1 9.1 10z"/><path class="b" d="m524 483.6c-4.1 0.4-14.5-2.3-11.8-6.8 2.1-3.5 9.4 2.4 11.8 6.8z"/><path class="b" d="m534.3 494.4c-3.7 1.7-14.5 2.3-13.3-2.8 1-3.9 9.7-0.7 13.3 2.8z"/><path class="b" d="m537.4 491.5c-2.9-3-7.3-12.8-2.1-13.5 4-0.5 4 8.8 2.1 13.5z"/><path class="b" d="m527.9 480.5c-1.8-3.7-3-14.4 2.1-13.5 4 0.8 1.2 9.6-2.1 13.5z"/><path class="b" d="m520.8 466.6c-0.8-4 0.9-14.7 5.6-12.4 3.6 1.8-1.4 9.6-5.6 12.4z"/><path class="b" d="m753.7 125.4c-0.1 0.4-3.8 11.2-14.5 21.7-9.9 9.7-27.9 20.8-57.7 18.9l0.2-2.2c15.9 1.1 38.5-1.3 55.9-18.2 10.4-10.1 14-20.8 14-20.9z"/><path class="b" d="m683.8 165.6c-3.8 1.7-13.9 3-12.9-2 0.7-3.8 10.9-1.5 12.9 2z"/><path class="b" d="m694.9 166.7c-0.6 3.2-5 10.3-7.7 7.2-2-2.3 3.9-6.4 7.7-7.2z"/><path class="b" d="m694.3 163.1c-3.2 0-10.9-3.1-8.4-6.3 1.9-2.4 7 2.7 8.4 6.3z"/><path class="b" d="m709.4 164.7c-0.7 3.3-5.5 11-8.4 7.7-2.2-2.5 4.2-6.9 8.4-7.7z"/><path class="b" d="m707.1 160.7c-3.4 0.3-12-2.3-9.6-6 1.8-2.8 7.8 2.2 9.6 6z"/><path class="b" d="m722.9 160c-0.6 3.7-5.3 12.5-8.7 9-2.6-2.6 4.2-7.8 8.7-9z"/><path class="b" d="m736.6 151.3c0.6 3.8-1.2 13.5-5.5 11.3-3.3-1.7 1.6-8.7 5.5-11.3z"/><path class="b" d="m745.8 141.2c1.8 3.3 3.1 13.2-1.7 12.4-3.7-0.6-1.2-8.8 1.7-12.4z"/><path class="b" d="m742.9 138.6c-2.5 2.8-11.2 7.5-12.2 2.8-0.7-3.7 7.8-4.3 12.2-2.8z"/><path class="b" d="m733.5 148c-3.3 1.9-13 3.7-12.5-1.1 0.4-3.7 8.7-1.7 12.5 1.1z"/><path class="b" d="m721.2 155.4c-3.6 1-13.5 0.2-11.7-4.3 1.3-3.4 8.8 0.7 11.7 4.3z"/><path class="j" d="m739.4 260c-4.8-3.9-8.3 0.8-7 4.5-4.4-11.3-6.6-20.9-16.6-27.6-6-1.1-5.4 7.2-3.6 10.4-3.5-6.7-7.5-13.4-13-18.5-5.6-5.2-13-8.7-20.6-8-4.3 0.4-9.2 3.3-8.8 7.6 0.1 1.4 0.8 2.7 1.5 3.9 5.5 9.2 13.5 16.9 22.9 22-4-0.4-9-0.3-10.9 3.2-1.3 2.4-0.4 5.5 1.5 7.6 1.8 2 4.4 3.1 7 4.1 6.4 2.3 13.1 3.7 19.8 4.2-2.1 0.3-5 0.1-6.8 1.3-1.9 1.1-3.1 2.7-2.4 4.7 2.5 7.1 14.5 7.8 18.5 9-2.9 0.5-6 0.7-5.6 3.6 1.3 5.2 8.6 7.6 12.5 8.8 3.1 0.9 8.8 3.5 13.1 4.2 7.4 1.2 15.9 4.1 15.3-4.7-0.1-2.8 0.3-7.8-2-13.9-3.3-8.9-8.9-20.9-14.8-26.4z"/><path class="k" d="m754.6 304.9c-52.2-65.6-81.5-82.6-81.7-82.8l-0.7 1.2c0.3 0.1 29.3 17.1 81.4 82.4z"/><path class="k" d="m716.9 262.4l-0.2-1.2c-0.2 0-12.5 1.9-22.2-1.3l-0.4 1.2c10 3.3 22.3 1.4 22.8 1.3z"/><path class="k" d="m725.9 271c-0.4-10.7-5.6-24.9-5.6-25.1l-1.2 0.5c0 0.1 5.1 14.2 5.5 24.6z"/><path class="k" d="m736.7 285.6l0.8-1.1c-8.1-5.8-25.8-6.1-26.5-6.1v1.3c0.2 0 18 0.3 25.7 5.9z"/><path class="k" d="m745.3 293.6c2.2-12.1-4.3-24.1-4.6-24.6l-1.1 0.6c0 0.1 6.5 12.1 4.4 23.7z"/><path class="f" d="m716.8-0.1c-4.4 4.3-0.2 8.4 3.6 7.6-11.7 2.9-21.5 3.8-29.5 12.9-1.8 5.8 6.5 6.3 9.9 4.9-7.1 2.7-14.2 5.7-20 10.6-5.8 4.8-10.3 11.8-10.6 19.3-0.1 4.4 2.1 9.6 6.4 9.8 1.5 0 2.8-0.5 4.1-1.1 9.8-4.2 18.5-11.1 24.7-19.8-0.9 3.9-1.4 8.8 1.9 11.1 2.2 1.6 5.4 1.1 7.6-0.4 2.3-1.6 3.8-4 5-6.5 3.1-6 5.4-12.5 6.7-19.1 0 2.1-0.5 5 0.4 7 0.9 1.9 2.3 3.3 4.4 2.9 7.4-1.6 9.6-13.4 11.3-17.2 0.1 3-0.1 6.1 2.8 6 5.3-0.6 8.6-7.6 10.3-11.3 1.4-2.9 4.6-8.2 5.8-12.4 2.2-7.2 6.2-15.3-2.6-15.9-2.8-0.1-7.7-1.2-14.1 0.3-9.2 2.2-21.8 6.1-28.1 11.3z"/><path class="k" d="m763.3-9.5c-71.7 43.6-92.2 70.4-92.4 70.6l1 0.8c0.2-0.2 20.7-26.9 92.1-70.2z"/><path class="k" d="m716.4 22.6h-1.3c0 0.2 0.3 12.7-4 21.9l1.1 0.5c4.6-9.5 4.2-21.9 4.2-22.4z"/><path class="k" d="m726 14.8c-10.6-1-25.4 2.3-25.5 2.3l0.3 1.3c0.1-0.1 14.7-3.3 25.1-2.3z"/><path class="k" d="m741.9 5.9l-0.9-0.9c-6.8 7.2-9.4 24.7-9.5 25.4l1.3 0.2c0.1-0.2 2.6-17.8 9.1-24.7z"/><path class="k" d="m750.9-1.6c-11.7-3.7-24.5 1.1-25 1.4l0.5 1.2c0.1-0.1 12.8-4.9 24.1-1.4z"/><path class="j" d="m417.5 490.3c2.9-4.4-1.3-7-4.3-5.6 9.2-4.5 17.1-7 22-15.9 0.5-5.1-6.4-4-9-2.3 5.4-3.4 10.7-7.2 14.7-12.2 3.9-5.1 6.4-11.6 5.2-17.9-0.6-3.6-3.4-7.5-7-6.9-1.1 0.2-2.2 0.9-3.2 1.6-7.3 5.2-13.2 12.5-16.8 20.8 0-3.4-0.4-7.6-3.5-8.9-2.1-0.9-4.7 0-6.3 1.7-1.5 1.7-2.3 4-2.9 6.2-1.5 5.5-2.2 11.2-2.1 17-0.4-1.8-0.5-4.2-1.6-5.7-1.1-1.5-2.5-2.4-4.2-1.6-5.8 2.5-5.5 12.7-6.2 16.1-0.7-2.4-1.1-5-3.4-4.5-4.3 1.5-5.8 7.9-6.5 11.2-0.6 2.7-2.3 7.6-2.6 11.3-0.5 6.3-2.4 13.7 5 12.6 2.3-0.4 6.5-0.4 11.5-2.7 7.3-3.4 16.9-9 21.2-14.3z"/><path class="l" d="m380.8 506.2c51.4-48.5 63.7-74.3 63.8-74.5l-1-0.5c-0.1 0.3-12.3 25.8-63.5 74.2z"/><path class="l" d="m413.8 471.5l1.1-0.3c0-0.1-2.5-10.3-0.5-18.7l-1.1-0.2c-2.1 8.6 0.4 18.8 0.5 19.2z"/><path class="l" d="m407.3 479.7c8.9-1.1 20.5-6.4 20.6-6.5l-0.4-1c-0.2 0.1-11.6 5.3-20.3 6.4z"/><path class="l" d="m395.8 489.8l0.9 0.6c4.3-7.2 3.3-22.1 3.3-22.7l-1.1 0.1c0 0.1 1 15.1-3.1 22z"/><path class="l" d="m389.7 497.6c10.3 0.9 19.9-5.3 20.3-5.6l-0.6-0.9c-0.1 0.1-9.7 6.3-19.6 5.4z"/><path class="m" d="m753.7 326.2c0 0-56.7-13-88.8-63.1l-5-8.2"/><path class="m" d="m667.6 257.4c1.6 7.9 1.4 11.7 1.4 11.7 0 0-2.6 0.5-11.9-3.8"/><path class="m" d="m672.5 258.8c1.1 10.3 0.1 16.1 0.4 14.8 0 0-4.5 1.9-15.1-2.3"/><path class="m" d="m678.2 261.5c0 0 0.3 8-0.9 18 0 0-5.6 1.6-17.3-1"/><path class="m" d="m684.1 266.2c0 0 0.6 7.6-1.3 19.2 0 0-6.3 1.9-19.4-0.6"/><path class="m" d="m689.8 268.9c0 0 0.7 9-1.3 21.9 0 0-7.9 2.8-20.3 0.8"/><path class="m" d="m695.6 272.3c0 0 0.9 9.9-1.4 23.3 0 0-9 2.8-22.6 2.4"/><path class="m" d="m702 274.9c0 0 1.2 10.4-0.7 26.2 0 0-8.7 3.9-25.6 3.1"/><path class="m" d="m708.9 276.8c0 0 1.8 17.8-1.2 28.7 0 0-10.5 4.3-26.5 4.8"/><path class="m" d="m716 280.1c0 0 2.1 15.3-0.7 30 0 0-10.1 4.2-26 6.7"/><path class="m" d="m723.4 285.9c0 0 1.7 11.8-0.6 28.3 0 0-8.4 4.4-22.9 6.8"/><path class="m" d="m730.8 291.8c0 0 1.8 9.2 0 26.3 0 0-6.6 3.4-18.3 6.8"/><path class="m" d="m738.2 297.7c0 0 1.3 10.2 0.4 23.6 0 0-1.3 2.7-15 7"/><path class="m" d="m745 303.6c0 0 1.5 8.6 0.9 19.8 0 0-2.2 3.9-10.5 7.6"/><path class="g" d="m752 382.9c0 0-22.2-29.1-72-57.3"/><path class="g" d="m684.9 334.1l7.4-1.3"/><path class="g" d="m687.3 338.7l9.8-2.8"/><path class="g" d="m694.5 334.7l-2.9-10.1"/><path class="g" d="m713.4 347.3l-3.5-17.3"/><path class="g" d="m705.3 332.5l6.4 6.2 3.4-4.3"/><path class="g" d="m718.6 351.3h-16.5"/><path class="g" d="m702.4 346.4l6.2 4.9"/><path class="g" d="m709.4 357.5l4.6-6.2"/><path class="g" d="m719.1 358.1l8.6 0.6"/><path class="g" d="m740.1 370c0 0-11.8-0.2-18.6 0.3"/><path class="g" d="m722.4 364.7l6.9 5.3-4 4.8"/><path class="g" d="m735 365.2l-5.2-19.6"/><path class="g" d="m726 350l6.8 5.8 3.5-5.9"/><path class="g" d="m745.4 375.4c-0.2-0.1-1.6-9-1.6-9"/><path class="h" d="m684.3 336.2c1.1-1.2 0.9-3-0.3-4.1-1.2-1-3-0.9-4.1 0.4-1 1.2-0.9 3 0.3 4.1 1.3 1 3.1 0.8 4.1-0.4z"/><path class="h" d="m681.6 327.5c1-1.2 0.9-3-0.4-4.1-1.2-1-3-0.9-4.1 0.4-1 1.2-0.8 3 0.4 4 1.2 1.1 3 0.9 4.1-0.3z"/><path class="h" d="m693 324.5c1-1.2 0.9-3-0.3-4.1-1.2-1-3.1-0.9-4.1 0.4-1.1 1.2-0.9 3 0.3 4.1 1.2 1 3.1 0.8 4.1-0.4z"/><path class="h" d="m688.3 342.1c1-1.2 0.8-3.1-0.4-4.1-1.2-1-3-0.9-4.1 0.3-1 1.3-0.9 3.1 0.4 4.1 1.2 1.1 3 0.9 4.1-0.3z"/><path class="h" d="m703.1 347.1c1-1.3 0.9-3.1-0.3-4.1-1.3-1.1-3.1-0.9-4.1 0.3-1.1 1.2-0.9 3.1 0.3 4.1 1.2 1 3 0.9 4.1-0.3z"/><path class="h" d="m702.3 354c1-1.2 0.9-3.1-0.4-4.1-1.2-1-3-0.9-4.1 0.3-1 1.3-0.8 3.1 0.4 4.1 1.2 1.1 3 0.9 4.1-0.3z"/><path class="h" d="m709.8 361.6c1-1.2 0.9-3-0.4-4.1-1.2-1-3-0.8-4.1 0.4-1 1.2-0.8 3 0.4 4.1 1.2 1 3 0.9 4.1-0.4z"/><path class="h" d="m719.3 360.9c1.1-1.3 0.9-3.1-0.3-4.1-1.2-1.1-3.1-0.9-4.1 0.3-1 1.2-0.9 3.1 0.3 4.1 1.3 1 3.1 0.9 4.1-0.3z"/><path class="h" d="m723.1 365.4c1.1-1.3 0.9-3.1-0.3-4.1-1.2-1.1-3.1-0.9-4.1 0.3-1 1.2-0.9 3.1 0.3 4.1 1.3 1 3.1 0.9 4.1-0.3z"/><path class="h" d="m721 372.4c1-1.2 0.8-3-0.4-4.1-1.2-1-3-0.9-4.1 0.4-1 1.2-0.9 3 0.4 4 1.2 1.1 3 0.9 4.1-0.3z"/><path class="h" d="m726.2 378.2c1.1-1.3 0.9-3.1-0.3-4.1-1.2-1.1-3.1-0.9-4.1 0.3-1 1.2-0.9 3.1 0.3 4.1 1.3 1 3.1 0.9 4.1-0.3z"/><path class="h" d="m745.8 365.6c1.1-1.2 0.9-3.1-0.3-4.1-1.2-1.1-3.1-0.9-4.1 0.3-1 1.2-0.9 3.1 0.3 4.1 1.3 1.1 3.1 0.9 4.1-0.3z"/><path class="h" d="m739 349.6c1.1-1.2 0.9-3-0.3-4.1-1.2-1-3.1-0.8-4.1 0.4-1 1.2-0.9 3 0.3 4.1 1.3 1 3.1 0.9 4.1-0.4z"/><path class="h" d="m731.1 345.5c1.1-1.2 0.9-3.1-0.3-4.1-1.2-1.1-3.1-0.9-4.1 0.3-1 1.2-0.9 3.1 0.3 4.1 1.3 1 3.1 0.9 4.1-0.3z"/><path class="h" d="m726.7 350.6c1.1-1.2 0.9-3-0.3-4.1-1.2-1-3-0.8-4.1 0.4-1 1.2-0.9 3 0.3 4.1 1.3 1 3.1 0.9 4.1-0.4z"/><path class="h" d="m718.6 334.8c1-1.2 0.9-3-0.3-4.1-1.3-1-3.1-0.9-4.1 0.4-1.1 1.2-0.9 3 0.3 4 1.2 1.1 3 0.9 4.1-0.3z"/><path class="h" d="m711.9 329.2c1.1-1.3 0.9-3.1-0.3-4.1-1.2-1.1-3-0.9-4.1 0.3-1 1.2-0.9 3.1 0.3 4.1 1.3 1 3.1 0.9 4.1-0.3z"/><path class="h" d="m706.1 333.1c1-1.2 0.9-3.1-0.4-4.1-1.2-1.1-3-0.9-4.1 0.3-1 1.2-0.8 3.1 0.4 4.1 1.2 1.1 3 0.9 4.1-0.3z"/></svg>